# xmcd
# Track frame offsets:
# 150
# 10961
# 25718
# 38581
# 51877
# 60128
# 71792
# 83248
# 97700
# 107734
# 122950
# 135881
# 148297
# 161424
# 175625
# 187959
# 200028
# 213602
# 224974
# 237182
# 251322
# 264714
# 278580
# 293212
# 308498
# 320998
#
# Disc length: 4468 seconds
# Revision: 0
# Processed by: cddbd v1.5.1PL2 Copyright (c) Steve Scherf et al.
# Submitted via: VisiTrax 2.10.0.248 - For more info visit www.synapsa.com
#
DISCID=7a11721a
DTITLE=Merle Haggard - Down Every Road [CD3]
DYEAR=1996
DGENRE=
TTITLE0=Life's Railway To Heaven
TTITLE1=Trouble in Mind
TTITLE2=Stay A Little Longer
TTITLE3=The Farmer's Daughter
TTITLE4=Tulare Dust
TTITLE5=Carolyn
TTITLE6=Someday We'll Look Back
TTITLE7=Daddy Frank (The Guitar Man)
TTITLE8=Grandma Harp
TTITLE9=It's Not Love (But It's Not Bad)
TTITLE10=I Wonder If They Ever Think Of Me
TTITLE11=If We Make It Through December
TTITLE12=The Emptiest Arms In The World
TTITLE13=Everybody's Had The Blues
TTITLE14=Things Aren't Funny Anymore
TTITLE15=Honky Tonk Night Time Man
TTITLE16=Holding Things Together
TTITLE17=Here In Frisco
TTITLE18=Kentucky Gambler
TTITLE19=Always Wanting You
TTITLE20=Living With The Shades Pulled Down
TTITLE21=Running Kind
TTITLE22=It's All In The Movies
TTITLE23=The Way It Was In '51
TTITLE24=I Never Go Around Mirrors
TTITLE25=What Have You Got Planned Tonight Diana
EXTD=
EXTT0=
EXTT1=
EXTT2=
EXTT3=
EXTT4=
EXTT5=
EXTT6=
EXTT7=
EXTT8=
EXTT9=
EXTT10=
EXTT11=
EXTT12=
EXTT13=
EXTT14=
EXTT15=
EXTT16=
EXTT17=
EXTT18=
EXTT19=
EXTT20=
EXTT21=
EXTT22=
EXTT23=
EXTT24=
EXTT25=
PLAYORDER=
